# xmcd
#
# Track frame offsets: 
#        150
#        18139
#        27386
#        40562
#        60750
#        70596
#        83906
#        94547
#        105592
#        123156
#        138916
#        158087
#
# Disc length: 2405 seconds
#
# Revision: 0
# Processed by: cddbd v1.5.2PL0 Copyright (c) Steve Scherf et al.
# Submitted via: ExactAudioCopy v0.95b4
#
DISCID=7e09630c
DTITLE=Memphis Slim - The Very Best Of Memphis Slim: The Blues Is Ever
DTITLE=ywhere
DYEAR=1998
DGENRE=Blues
TTITLE0=1. We've Been Together Too Long 
TTITLE1=2. Sassy Mae
TTITLE2=3. The Driving Wheel
TTITLE3=4. Life If Like That
TTITLE4=5. All By Myself
TTITLE5=6. Next Time You See Me
TTITLE6=7. Misery
TTITLE7=8. Kansas City
TTITLE8=9. The Comeback
TTITLE9=10. HCF Boogie
TTITLE10=11. The Blues Is Everywhere
TTITLE11=12. Boogie Jam
EXTD=
EXTT0=
EXTT1=
EXTT2=
EXTT3=
EXTT4=
EXTT5=
EXTT6=
EXTT7=
EXTT8=
EXTT9=
EXTT10=
EXTT11=
PLAYORDER=
